<?xml version="1.0" encoding="UTF-8" standalone="no"?>
<!-- Created with Inkscape (http://www.inkscape.org/) -->

<svg
   width="500"
   height="500"
   viewBox="0 0 132.29166 132.29167"
   version="1.1"
   id="svg1"
   inkscape:version="1.3 (0e150ed6c4, 2023-07-21)"
   sodipodi:docname="box.svg"
   xml:space="preserve"
   xmlns:inkscape="http://www.inkscape.org/namespaces/inkscape"
   xmlns:sodipodi="http://sodipodi.sourceforge.net/DTD/sodipodi-0.dtd"
   xmlns="http://www.w3.org/2000/svg"
   xmlns:svg="http://www.w3.org/2000/svg"><sodipodi:namedview
     id="namedview1"
     pagecolor="#ffffff"
     bordercolor="#000000"
     borderopacity="0.25"
     inkscape:showpageshadow="2"
     inkscape:pageopacity="0.0"
     inkscape:pagecheckerboard="0"
     inkscape:deskcolor="#d1d1d1"
     inkscape:document-units="mm"
     inkscape:zoom="1.0343421"
     inkscape:cx="122.29996"
     inkscape:cy="423.94098"
     inkscape:window-width="1920"
     inkscape:window-height="1017"
     inkscape:window-x="-8"
     inkscape:window-y="-8"
     inkscape:window-maximized="1"
     inkscape:current-layer="layer1"
     showguides="true" /><defs
     id="defs1" /><g
     inkscape:label="Camada 1"
     inkscape:groupmode="layer"
     id="layer1"><g
       id="g82"
       transform="matrix(0.93501692,0,0,0.93501692,-28.633244,-64.168034)"><path
         style="fill:#108b52;fill-opacity:1;stroke:none;stroke-width:0.264583"
         d="m 111.78402,89.593485 c -5.57368,5.069362 -21.835599,19.013605 -8.18556,27.178615 -0.28028,-5.83847 0.43351,-11.55268 4.22068,-16.882717 -1.36751,5.840737 -2.03803,10.850127 -1.79059,17.522207 12.82958,-2.39397 7.92656,-15.96719 5.75547,-27.818105 z"
         id="path3"
         sodipodi:nodetypes="ccccc" /><path
         style="fill:#91c15d;fill-opacity:1;stroke:none;stroke-width:0.230449"
         d="m 76.161881,95.78707 c 6.314523,1.785991 24.409129,6.33716 16.941196,18.00574 -2.050082,-4.6601 -3.675687,-7.11046 -8.698875,-9.79382 3.33545,4.02162 4.653463,5.93937 7.053047,11.23654 -10.931107,3.11885 -12.383045,-9.36685 -15.295368,-19.44846 z"
         id="path4"
         sodipodi:nodetypes="ccccc" /><path
         style="fill:#108b52;fill-opacity:1;stroke:none;stroke-width:0.144555"
         d="m 92.660399,86.757247 c 2.895939,2.925337 11.369431,10.998656 3.688318,15.062883 0.319988,-3.177444 0.189248,-5.017336 -1.724507,-8.03378 0.578981,3.225836 0.706279,4.679939 0.38035,8.31315 -6.931314,-1.67327 -3.867822,-8.938525 -2.344161,-15.342253 z"
         id="path5"
         sodipodi:nodetypes="ccccc" /><path
         style="fill:#108b52;fill-opacity:1;stroke:none;stroke-width:0.161987"
         d="m 74.512984,78.261378 c 4.009472,1.787356 16.495255,6.669906 10.614679,14.771992 -0.96456,-3.605045 -1.967927,-5.405166 -5.053119,-7.762995 0.823476,3.226052 1.487479,5.196621 3.217334,8.214319 -8.62971,1.419465 -8.327752,-7.53595 -8.778894,-15.223316 z"
         id="path6"
         sodipodi:nodetypes="ccccc" /><path
         style="fill:#108b52;fill-opacity:1;stroke:none;stroke-width:0.0879077"
         d="m 92.726048,74.817211 c -1.307402,2.134695 -5.200491,8.092965 -0.08785,9.430342 -0.631496,-1.836523 -0.810074,-2.943926 -0.0968,-4.995908 0.106041,1.99024 0.232983,2.868778 0.931405,4.974287 3.870534,-1.954896 1.046166,-5.829705 -0.74676,-9.408721 z"
         id="path7"
         sodipodi:nodetypes="ccccc" /><path
         style="fill:#91c15d;fill-opacity:1;stroke:none;stroke-width:0.134318"
         d="m 106.77953,74.834786 c -2.66616,2.742419 -10.471407,10.314966 -3.30043,14.026636 -0.32402,-2.949621 -0.21802,-4.660255 1.53478,-7.479068 -0.51085,3.002144 -0.61688,4.354296 -0.28351,7.727343 6.42615,-1.61299 3.51863,-8.337731 2.04909,-14.274928 z"
         id="path8"
         sodipodi:nodetypes="ccccc" /><path
         style="fill:#108b52;fill-opacity:1;stroke:none;stroke-width:0.160705"
         d="m 124.57147,79.42473 c -4.06847,2.09507 -15.80537,7.71129 -9.08555,14.652243 0.75588,-3.468912 1.52761,-5.36877 4.58924,-7.898347 -1.72281,3.210518 -2.35806,4.703768 -3.26457,8.656501 7.90295,0.617964 7.16637,-8.116694 7.76081,-15.410444 z"
         id="path9"
         sodipodi:nodetypes="ccccc" /><path
         style="fill:#108b52;fill-opacity:1;stroke:none;stroke-width:0.153283"
         d="m 129.11873,92.5317 c -3.88056,1.998305 -15.07537,7.35513 -8.66592,13.97551 0.72097,-3.30871 1.45706,-5.12081 4.37728,-7.533555 -1.64324,3.062235 -2.24915,4.486515 -3.11379,8.256685 7.53794,0.58942 6.83538,-7.74181 7.40236,-14.698685 z"
         id="path10"
         sodipodi:nodetypes="ccccc" /><path
         style="fill:#91c15d;fill-opacity:1;stroke:none;stroke-width:0.0929529"
         d="m 140.96154,95.322247 c -2.64131,-0.172102 -10.13375,-0.88071 -8.86741,4.561827 1.40749,-1.495314 2.35575,-2.207766 4.62709,-2.550863 -1.81009,1.079329 -2.56963,1.630767 -4.19584,3.321169 3.73532,2.659 5.97015,-1.891982 8.43614,-5.332178 z"
         id="path11"
         sodipodi:nodetypes="ccccc" /><path
         style="fill:#91c15d;fill-opacity:1;stroke:none;stroke-width:0.174406"
         d="m 141.47928,105.57727 c -4.95582,-0.32291 -19.01369,-1.65245 -16.63769,8.55925 2.64083,-2.80562 4.42003,-4.14238 8.68169,-4.78612 -3.39623,2.02513 -4.82134,3.05976 -7.87255,6.23143 7.00849,4.98902 11.20164,-3.54989 15.82852,-10.00463 z"
         id="path12"
         sodipodi:nodetypes="ccccc" /><path
         style="fill:#108b52;fill-opacity:1;stroke:none;stroke-width:0.089222"
         d="m 122.06412,118.65876 c -2.39046,-0.86059 -9.11276,-3.50507 -9.39097,1.85131 1.69552,-1.00519 2.75946,-1.41035 4.94559,-1.12325 -1.95634,0.51454 -2.80342,0.82131 -4.75251,1.94833 2.73869,3.44507 6.00926,-0.15867 9.19788,-2.67642 z"
         id="path13"
         sodipodi:nodetypes="ccccc" /><path
         style="fill:#108b52;fill-opacity:1;stroke:none;stroke-width:0.124016"
         d="m 150.19283,114.71991 c -3.27656,-1.31726 -12.47923,-5.33326 -13.13875,2.09275 2.40638,-1.3098 3.90488,-1.81834 6.92685,-1.30809 -2.74366,0.61497 -3.93591,0.9979 -6.70073,2.464 3.6285,4.92494 8.35515,0.086 12.91261,-3.2487 z"
         id="path14"
         sodipodi:nodetypes="ccccc" /><path
         style="fill:#108b52;fill-opacity:1;stroke:none;stroke-width:0.197094"
         d="m 144.74695,125.37551 c -4.78598,-2.93136 -18.14434,-11.6602 -21.14315,-0.19769 4.11761,-1.41569 6.60044,-1.81604 11.20102,-0.21667 -4.46225,0.23759 -6.43192,0.52214 -11.15258,2.08791 4.38271,8.67798 13.07031,2.34595 21.09469,-1.67361 z"
         id="path15"
         sodipodi:nodetypes="ccccc" /><g
         id="g78"
         style="fill:#a8abb0;fill-opacity:1;stroke:none"><circle
           style="fill:#a8abb0;fill-opacity:1;stroke:none;stroke-width:0.264583"
           id="circle15"
           cx="103.68774"
           cy="124.35703"
           r="3.2557855" /><path
           style="fill:#a8abb0;fill-opacity:1;stroke:none;stroke-width:0.264583"
           d="m 89.850639,124.44749 c 10.403371,6.31443 18.528861,5.05797 26.905451,0 -2.2076,4.66605 -10.23195,8.09864 -11.99056,16.35368 l -0.0202,6.56724 -1.99324,0.006 -0.0866,-6.60778 c -1.11912,-6.05779 -10.189801,-11.21364 -12.814841,-16.31867 z"
           id="path16"
           sodipodi:nodetypes="ccccccc" /></g><path
         style="fill:#108b52;fill-opacity:1;stroke:none;stroke-width:0.174829"
         d="m 59.962522,107.51972 c 4.83348,-1.19253 18.471384,-4.98343 17.927384,5.51256 -3.100694,-2.30292 -5.092144,-3.3083 -9.411063,-3.19207 3.708489,1.39955 5.297242,2.16922 8.867472,4.76099 -6.03624,6.15902 -11.679768,-1.52779 -17.383793,-7.08148 z"
         id="path17"
         sodipodi:nodetypes="ccccc" /><path
         style="fill:#91c15d;fill-opacity:1;stroke:none;stroke-width:0.0878542"
         d="m 65.580213,97.321054 c 2.500352,0.08301 9.613382,0.11113 7.917655,5.112976 -1.18523,-1.53697 -2.011113,-2.29502 -4.115703,-2.828312 1.602478,1.183042 2.26578,1.772132 3.638663,3.512882 -3.759928,2.15473 -5.440063,-2.33309 -7.440615,-5.797546 z"
         id="path18"
         sodipodi:nodetypes="ccccc" /><path
         style="fill:#91c15d;fill-opacity:1;stroke:none;stroke-width:0.106623"
         d="m 52.927706,116.25945 c 2.678688,-1.42933 10.172897,-5.71412 11.42421,0.5723 -2.178143,-0.89675 -3.506092,-1.19267 -6.041878,-0.47677 2.402074,0.27163 3.456639,0.48856 5.955643,1.4857 -2.645462,4.5456 -7.133665,0.84713 -11.337972,-1.58126 z"
         id="path19"
         sodipodi:nodetypes="ccccc" /><path
         style="fill:#108b52;fill-opacity:1;stroke:none;stroke-width:0.200912"
         d="m 61.234055,125.13548 c 4.901609,-2.95055 18.58708,-11.74341 21.553916,-0.0354 -4.186166,-1.47543 -6.713927,-1.903 -11.416088,-0.30889 4.546694,0.27726 6.552307,0.58279 11.352049,2.2159 -4.535656,8.81155 -13.341717,2.28874 -21.489873,-1.87166 z"
         id="path20"
         sodipodi:nodetypes="ccccc" /><path
         style="fill:#108b52;fill-opacity:1;stroke:none;stroke-width:0.0837443"
         d="m 82.921142,119.08424 c 2.205818,-0.90617 8.399565,-3.66481 8.882686,1.34633 -1.631584,-0.87222 -2.646054,-1.20797 -4.684048,-0.84808 1.855781,0.4013 2.662823,0.65383 4.537255,1.62975 -2.425105,3.34407 -5.641445,0.10057 -8.735888,-2.12803 z"
         id="path21"
         sodipodi:nodetypes="ccccc" /><path
         id="rect21"
         style="fill:#5c6063;fill-opacity:1;stroke:none;stroke-width:0.264583"
         d="m 55.987797,200.38622 v 0.57567 h 13.973307 v -0.57567 z m 77.596293,0 v 0.57567 h 13.97331 v -0.57567 z" /><path
         id="path80"
         style="color:#000000;fill:#5c6063;fill-opacity:1;-inkscape-stroke:none"
         d="m 48.374825,172.99978 c -0.442565,0.004 -0.802387,0.19266 -1.030945,0.46715 -0.228558,0.27448 -0.332488,0.62464 -0.316776,0.96687 l 0.0041,0.10542 0.0098,0.008 v 11.205 h 1.042831 v -5.89421 h 6.064746 v -1.05885 h -6.064746 v -4.408 c 0.009,-0.0899 0.03153,-0.18041 0.07235,-0.23462 0.03906,-0.0519 0.09584,-0.0742 0.179834,-0.0858 h 6.900354 v -1.0604 h -6.746359 l -0.01137,-0.0103 z m 53.630835,0 c -0.44257,0.004 -0.80459,0.19263 -1.03301,0.46715 -0.22843,0.27451 -0.32991,0.62471 -0.31419,0.96687 l 0.004,0.10542 0.008,0.008 v 11.205 h 1.0449 v -5.53713 h 2.91972 l 3.84162,5.58002 h 1.16996 l -3.83749,-5.58002 h 0.23047 v -0.15038 c 0.54666,-0.0699 1.14861,-0.29729 1.6738,-0.83974 0.60554,-0.62543 1.08482,-1.53666 1.09761,-2.64842 0.0127,-1.10461 -0.44237,-1.99842 -1.04283,-2.60914 -0.52556,-0.53454 -1.15178,-0.764 -1.72496,-0.84026 v -0.12299 h -3.92948 l -0.004,-0.004 z m -33.988106,0.0703 v 0.24804 12.4318 h 1.04128 v -12.67984 z m 33.933326,1.00872 h 5.2e-4 3.8592 c 0.37483,0.0241 0.89334,0.34382 1.29501,0.83561 0.40901,0.50079 0.69093,1.14608 0.68368,1.66398 -0.007,0.52517 -0.2919,1.19134 -0.69764,1.70894 -0.39306,0.50141 -0.89162,0.82258 -1.26348,0.85783 h -0.76171 l -0.004,-0.004 h -1.18959 l 0.002,0.004 h -2.16008 v -4.75992 c 0.01,-0.0874 0.0305,-0.17556 0.0703,-0.22841 0.0357,-0.0474 0.0957,-0.064 0.16588,-0.078 z m -29.327923,0.15968 c -0.319384,-1.5e-4 -0.584089,0.26507 -0.583943,0.58446 -1.56e-4,0.31939 0.264552,0.58409 0.583943,0.58394 0.319055,-3.4e-4 0.582033,-0.26489 0.581877,-0.58394 1.47e-4,-0.31905 -0.262828,-0.58412 -0.581877,-0.58446 z m 68.006183,0 c -0.31939,-1.6e-4 -0.5846,0.26507 -0.58446,0.58446 -1.5e-4,0.31939 0.26506,0.5841 0.58446,0.58394 0.31939,1.6e-4 0.58203,-0.26455 0.58188,-0.58394 1.4e-4,-0.31939 -0.2625,-0.58462 -0.58188,-0.58446 z m 14.49369,0 c -0.31905,3.4e-4 -0.58203,0.26541 -0.58188,0.58446 -1.6e-4,0.31905 0.26282,0.5836 0.58188,0.58394 0.31938,1.5e-4 0.5841,-0.26456 0.58394,-0.58394 1.5e-4,-0.31939 -0.26456,-0.58461 -0.58394,-0.58446 z m -7.13858,2.53731 c -0.96408,-0.0139 -1.92002,0.46422 -2.69906,1.32809 v -1.10743 h -0.94361 v 8.80463 h 0.94361 v -6.08748 c 0.70211,-1.62907 1.99678,-2.09426 3.15795,-1.9048 1.15364,0.18825 2.10957,1.04418 2.15645,2.10375 v 5.89473 h 0.95498 v -6.10195 h -0.0625 c -0.15884,-1.66065 -1.76819,-2.90438 -3.5078,-2.92954 z m -87.015362,0.0703 -0.02945,0.0295 c -2.392204,0.0763 -4.316375,2.0609 -4.316533,4.51755 -1.35e-4,2.50485 1.991783,4.54686 4.449341,4.54701 1.312258,-4.1e-4 2.556095,-0.59364 3.400309,-1.61747 l 0.33383,-0.40411 h -1.080037 l -0.07183,0.076 c -0.681357,0.71064 -1.611583,1.10907 -2.582272,1.1095 -1.839994,-0.004 -3.329098,-1.42715 -3.54707,-3.27526 h 7.759733 v -0.002 h 0.221175 l 0.01137,-0.23461 c 0.0032,-0.0656 0.0037,-0.13117 0.0041,-0.19689 v -0.002 c -1.55e-4,-2.50487 -1.991775,-4.54716 -4.449341,-4.54701 z m 19.798792,0.002 c -1.440565,0.003 -2.675024,0.8178 -3.500045,1.98644 v -1.76165 h -0.971 v 13.4059 h 0.971 v -6.52518 c 0.825021,1.16865 2.05948,1.98311 3.500045,1.98644 2.457771,1.6e-4 4.451026,-2.04194 4.450891,-4.54701 -1.61e-4,-2.50486 -1.99333,-4.5451 -4.450891,-4.54494 z m 10.872721,0 c -2.457348,1.5e-4 -4.448662,2.0403 -4.448824,4.54494 -1.35e-4,2.50485 1.991267,4.54686 4.448824,4.54701 1.312259,-4.1e-4 2.556612,-0.59364 3.400826,-1.61747 l 0.33383,-0.40411 H 94.29502 l -0.07235,0.076 c -0.681356,0.71064 -1.611582,1.10907 -2.582272,1.1095 -1.839993,-0.004 -3.328582,-1.42715 -3.546553,-3.27526 h 7.759733 v -0.002 h 0.220658 l 0.0098,-0.23461 c 0.003,-0.0656 0.0054,-0.13118 0.0057,-0.19689 v -0.002 c -1.62e-4,-2.50486 -1.991262,-4.5451 -4.448824,-4.54494 z m 23.789249,0 c -2.45735,1.5e-4 -4.44918,2.0403 -4.44934,4.54494 -1.4e-4,2.50485 1.99178,4.54686 4.44934,4.54701 2.45776,1.6e-4 4.44947,-2.04194 4.44934,-4.54701 -1.7e-4,-2.50486 -1.99179,-4.5451 -4.44934,-4.54494 z m 9.84177,0.13849 c -0.0907,3.1e-4 -0.18183,0.002 -0.2713,0.004 -0.73714,0.0164 -1.50749,0.16454 -2.12132,0.49041 -0.61383,0.32587 -1.08365,0.86863 -1.08365,1.59576 0,0.7068 0.3706,1.28183 0.9648,1.70688 0.59419,0.42505 1.412,0.72997 2.39055,0.99218 0.95852,0.25684 1.61424,0.48058 1.98438,0.73433 0.37013,0.25374 0.48398,0.49002 0.4532,0.97048 -0.0267,0.41726 -0.36262,0.74365 -0.87695,0.98289 -0.51433,0.23924 -1.1755,0.3612 -1.68362,0.3669 -0.52925,0.006 -1.11586,-0.0353 -1.54719,-0.13074 -0.21567,-0.0477 -0.39343,-0.112 -0.49403,-0.17209 -0.1006,-0.0601 -0.0997,-0.083 -0.0997,-0.0879 v -0.25166 l -0.93328,0.0155 v 0.24392 c 0,0.29765 0.15042,0.55558 0.36328,0.73277 0.21286,0.17718 0.48414,0.29413 0.7829,0.38085 0.59752,0.17343 1.31481,0.2222 1.9141,0.22066 0.61939,-0.002 1.44002,-0.12959 2.14664,-0.47077 0.70662,-0.34119 1.31594,-0.93275 1.36891,-1.80868 0.0521,-0.86219 -0.42379,-1.47126 -1.04645,-1.85363 -0.62265,-0.38238 -1.39601,-0.58718 -2.06086,-0.76533 -0.65253,-0.17484 -1.35331,-0.41546 -1.86913,-0.72657 -0.51582,-0.31111 -0.81804,-0.66227 -0.81804,-1.07849 0,-0.42462 0.26029,-0.68122 0.70486,-0.87694 0.44458,-0.19572 1.0495,-0.27992 1.56838,-0.28474 0.53049,-0.005 1.14345,0.0295 1.60146,0.11885 0.229,0.0447 0.419,0.10667 0.52916,0.16589 0.11016,0.0592 0.10542,0.0811 0.10542,0.0744 v 0.26148 l 0.94361,-0.0506 v -0.23409 c 0,-0.27371 -0.12383,-0.51928 -0.31057,-0.69144 -0.18673,-0.17216 -0.42863,-0.28483 -0.70125,-0.36741 -0.54525,-0.16516 -1.22618,-0.20963 -1.90428,-0.20723 z m 8.75968,0 c -0.0907,3.1e-4 -0.17974,0.002 -0.26924,0.004 -0.73715,0.0164 -1.50966,0.16453 -2.12338,0.49041 -0.61371,0.32588 -1.08159,0.86866 -1.08159,1.59576 0,0.7068 0.37061,1.28183 0.9648,1.70688 0.5942,0.42505 1.40992,0.72997 2.38848,0.99218 0.95851,0.25684 1.61439,0.4806 1.98438,0.73433 0.36999,0.25372 0.48605,0.48998 0.45527,0.97048 -0.0267,0.4173 -0.36483,0.74366 -0.87902,0.98289 -0.51419,0.23924 -1.17551,0.3612 -1.68362,0.3669 -0.52925,0.006 -1.11379,-0.0353 -1.54512,-0.13074 -0.21567,-0.0477 -0.39343,-0.112 -0.49403,-0.17209 -0.1006,-0.0601 -0.0997,-0.083 -0.0997,-0.0879 v -0.25166 l -0.93535,0.0155 v 0.24392 c 0,0.29765 0.15249,0.55558 0.36535,0.73277 0.21287,0.17718 0.48414,0.29413 0.7829,0.38085 0.59752,0.17343 1.31481,0.2222 1.9141,0.22066 0.61939,-0.002 1.43795,-0.12959 2.14457,-0.47077 0.70662,-0.34119 1.318,-0.93275 1.37097,-1.80868 0.0521,-0.86219 -0.42379,-1.47126 -1.04644,-1.85363 -0.62265,-0.38238 -1.39807,-0.58718 -2.06293,-0.76533 -0.65253,-0.17484 -1.35125,-0.41546 -1.86707,-0.72657 -0.51582,-0.31111 -0.81855,-0.66227 -0.81855,-1.07849 0,-0.42466 0.26095,-0.68123 0.70538,-0.87694 0.44444,-0.19571 1.0495,-0.27992 1.56838,-0.28474 0.53048,-0.005 1.14124,0.0295 1.59939,0.11885 0.22907,0.0447 0.42101,0.10666 0.53123,0.16589 0.11022,0.0592 0.10542,0.0812 0.10542,0.0744 v 0.26148 l 0.94155,-0.0506 v -0.23409 c 0,-0.27368 -0.12182,-0.51927 -0.30851,-0.69144 -0.18668,-0.17217 -0.42869,-0.28483 -0.70125,-0.36741 -0.54513,-0.16517 -1.22826,-0.20963 -1.90634,-0.20723 z m -61.824138,0.0196 v 0.24598 8.57829 h 0.943612 v -8.82427 z m 68.006188,0 v 0.24598 8.57829 h 0.94102 v -8.82427 z m 14.49369,0 v 0.24598 8.57829 h 0.94361 v -8.82427 z m -93.636666,0.67799 h 0.0021 c 1.831137,0.005 3.31799,1.41545 3.545003,3.25355 h -7.090006 c 0.227014,-1.8381 1.7118,-3.24807 3.542936,-3.25355 z m 19.697506,0 h 0.0021 c 1.998985,0.001 3.62086,1.65437 3.620968,3.70882 1.56e-4,2.05464 -1.621796,3.70973 -3.620968,3.71089 -1.658707,-0.004 -3.099496,-1.16019 -3.502112,-2.81275 v -1.79472 c 0.402643,-1.65172 1.842291,-2.80737 3.500045,-2.81224 z m 10.871171,0 h 0.0021 c 1.83101,0.005 3.315757,1.41564 3.542936,3.25355 h -7.087939 c 0.227013,-1.8381 1.711799,-3.24807 3.542936,-3.25355 z m 23.790799,0 c 1.99989,6e-5 3.62085,1.65369 3.62096,3.70882 1.6e-4,2.05532 -1.62088,3.71083 -3.62096,3.71089 -2.00009,-6e-5 -3.62112,-1.65557 -3.62097,-3.71089 1.1e-4,-2.05513 1.62107,-3.70876 3.62097,-3.70882 z" /><path
         id="path81"
         style="color:#000000;fill:#5c6063;fill-opacity:1;-inkscape-stroke:none"
         d="m 79.908301,197.75795 0.01137,0.11318 0.03927,0.3731 v 5.56452 h 0.496093 v -4.76198 l 4.386813,4.87722 -0.0041,-0.0336 0.0021,0.004 V 197.9392 H 84.34582 l 0.0155,4.62349 z m 16.286861,0.19121 c -0.188649,-6e-5 -0.341637,0.15345 -0.341581,0.3421 -6.2e-5,0.18865 0.152927,0.3437 0.341581,0.34364 0.188655,6e-5 0.34371,-0.15499 0.343648,-0.34364 5.6e-5,-0.18865 -0.154997,-0.34216 -0.343648,-0.3421 z m 5.693708,0 c -0.18865,-6e-5 -0.34421,0.15344 -0.34416,0.3421 -6e-5,0.18865 0.15551,0.3437 0.34416,0.34364 0.18866,6e-5 0.34164,-0.15499 0.34158,-0.34364 5e-5,-0.18866 -0.15293,-0.34216 -0.34158,-0.3421 z m 11.31817,0 c -0.18865,-6e-5 -0.34163,0.15345 -0.34158,0.3421 -6e-5,0.18865 0.15293,0.34369 0.34158,0.34364 0.18866,6e-5 0.34164,-0.15499 0.34158,-0.34364 5e-5,-0.18866 -0.15293,-0.34216 -0.34158,-0.3421 z m -22.216728,0.63303 v 0.0367 1.37718 h -0.779281 v 0.4532 h 0.779281 v 3.36104 h 0.499711 v -3.36104 h 0.771529 v -0.4532 h -0.771529 v -1.41387 z m 27.435538,0 v 0.0367 1.37718 h -0.78135 v 0.4532 h 0.78135 v 3.36104 h 0.49816 v -3.36104 h 0.77308 v -0.4532 h -0.77308 v -1.41387 z m -25.465116,1.35134 v 0.0393 3.84162 h 0.510046 v -2.49028 c 0.02277,-0.25537 0.134987,-0.46987 0.384473,-0.6134 0.249486,-0.14354 0.6402,-0.21369 1.214913,-0.16382 l 0.04134,0.002 v -0.50385 l -0.03152,-0.004 c -0.765607,-0.12743 -1.268899,0.11936 -1.609205,0.56431 v -0.6718 z m 3.117639,0 v 0.0393 3.84162 h 0.50953 v -3.8809 z m 5.595527,0 v 0.0393 3.84162 h 0.50953 v -3.8809 z m 6.68331,0 v 3.8809 h 0.50798 v -2.54661 c 0.3769,-0.66902 0.92825,-0.81509 1.39836,-0.73639 0.23576,0.0395 0.44885,0.13655 0.60565,0.25373 0.1568,0.11717 0.25333,0.25593 0.26355,0.36535 0.007,0.87482 0.003,1.75817 0.004,2.63653 v 0.0393 h 0.37672 v -2.65255 l 0.002,-0.004 v -0.0114 c 0.027,-0.87473 -1.42234,-1.71952 -2.65048,-0.67024 v -0.55449 h -0.0367 z m 4.63486,0 v 0.0393 3.84162 h 0.50798 v -3.8809 z m 10.39058,0 v 0.0393 0.79478 c -0.32939,-0.45246 -0.81458,-0.75444 -1.35341,-0.75603 -0.96813,-9e-5 -1.74969,0.84415 -1.74976,1.88103 8e-5,1.03688 0.78163,1.88111 1.74976,1.88102 0.53873,-0.001 1.02393,-0.30172 1.35341,-0.75396 v 0.79478 h 0.51005 v -3.8809 z m -23.683309,0.0217 c -1.075925,2e-5 -1.949216,0.8733 -1.949235,1.94923 2.4e-5,1.07592 0.873314,1.94922 1.949235,1.94924 0.263111,-9e-4 0.523709,-0.056 0.765329,-0.1602 l 0.0238,-0.0103 v -0.47232 l -0.0589,0.031 c -0.22408,0.12343 -0.474366,0.18872 -0.730189,0.18965 -0.843927,-7e-5 -1.527483,-0.68364 -1.527556,-1.52755 6.8e-5,-0.84393 0.683625,-1.52697 1.527556,-1.52704 0.255823,9.3e-4 0.506109,0.0657 0.730189,0.18913 l 0.0589,0.0315 v -0.47232 l -0.0238,-0.0119 c -0.24162,-0.10416 -0.502218,-0.15724 -0.765329,-0.15813 z m 5.627049,0 c -1.07592,2e-5 -1.94768,0.8733 -1.94769,1.94923 2e-5,1.07592 0.87177,1.94921 1.94769,1.94924 1.07592,-2e-5 1.94921,-0.87332 1.94923,-1.94924 -2e-5,-1.07593 -0.8733,-1.94921 -1.94923,-1.94923 z m 10.71666,0.006 c -0.35782,0 -0.65903,0.10091 -0.89452,0.29921 -0.23567,0.19679 -0.35554,0.45421 -0.35554,0.76326 0,0.26761 0.0713,0.48945 0.21498,0.66042 0.14535,0.16952 0.36664,0.28908 0.65784,0.3576 0.14212,0.0322 0.27615,0.0571 0.40256,0.078 0.12566,0.0206 0.24129,0.0465 0.34778,0.078 0.13854,0.0403 0.23802,0.0956 0.30076,0.16381 l 0.002,0.002 c 0.0614,0.0653 0.0935,0.17179 0.0935,0.32453 0,0.17372 -0.0668,0.30545 -0.20722,0.40979 -0.13835,0.10376 -0.33508,0.15813 -0.59532,0.15813 -0.18207,0 -0.37793,-0.0406 -0.58807,-0.12092 -0.20932,-0.08 -0.39344,-0.19292 -0.55294,-0.34003 l -0.0114,-0.01 h -0.0842 v 0.65836 l 0.0217,0.01 c 0.19404,0.0954 0.38445,0.16831 0.57206,0.21705 0.18998,0.049 0.40369,0.0723 0.63872,0.0723 0.21993,0 0.40979,-0.0286 0.56844,-0.0884 0.15856,-0.0591 0.29688,-0.14239 0.416,-0.24805 0.10958,-0.0982 0.19394,-0.21827 0.25373,-0.35915 0.061,-0.14025 0.0919,-0.28336 0.092,-0.42788 -9e-5,-0.2619 -0.0611,-0.47169 -0.18965,-0.6227 -0.12735,-0.1496 -0.3155,-0.25833 -0.56017,-0.33022 -0.12001,-0.0341 -0.2666,-0.0676 -0.4377,-0.0997 -0.16917,-0.0318 -0.29954,-0.0602 -0.39068,-0.0822 h -0.002 c -0.16889,-0.0436 -0.28253,-0.10654 -0.34365,-0.18138 -0.0623,-0.0763 -0.0956,-0.18321 -0.0956,-0.32608 0,-0.15578 0.0625,-0.27754 0.19327,-0.37724 0.13175,-0.0988 0.30627,-0.15038 0.52916,-0.15038 0.20459,0 0.40499,0.0385 0.59997,0.11369 0.19699,0.0738 0.35419,0.16604 0.47232,0.27699 l 0.0119,0.0103 h 0.0837 v -0.62322 l -0.0212,-0.0119 c -0.14856,-0.0717 -0.31887,-0.13078 -0.51004,-0.17932 -0.19262,-0.0489 -0.40314,-0.0744 -0.63252,-0.0744 z m -29.769763,0.20154 v 0.0393 2.27738 c 0,0.72899 0.589271,1.3162 1.318266,1.3162 h 0.460954 c 0.728995,0 1.316715,-0.58721 1.316715,-1.3162 v -2.31665 h -0.443384 l 0.0021,0.0408 c 0.0271,0.68024 0.01137,1.4181 0.01137,2.10168 0,0.59368 -0.478605,1.07022 -1.072286,1.07022 h -0.09147 c -0.59303,0 -1.06917,-0.47538 -1.070219,-1.06815 v -0.002 c 0.01432,-0.68451 -0.02475,-1.43483 0.0098,-2.10168 l 0.0016,-0.0408 z m 19.053103,0.21497 c 0.84393,7e-5 1.52697,0.6831 1.52704,1.52704 -8e-5,0.84393 -0.68311,1.52749 -1.52704,1.52756 -0.84392,-7e-5 -1.52749,-0.68364 -1.52756,-1.52756 7e-5,-0.84393 0.68363,-1.52696 1.52756,-1.52704 z m 16.70285,0.11111 c 0.71809,-1.3e-4 1.30264,0.6272 1.30277,1.40456 1.2e-4,0.77755 -0.5845,1.40419 -1.30277,1.40405 -0.71828,1.4e-4 -1.30288,-0.6265 -1.30276,-1.40405 1.4e-4,-0.77736 0.58466,-1.40469 1.30276,-1.40456 z" /><g
         id="g79"
         style="fill:#5c6063;fill-opacity:1;stroke:none"><circle
           style="fill:#5c6063;fill-opacity:1;stroke:none;stroke-width:0.264583"
           id="path1"
           cx="103.68774"
           cy="141.94319"
           r="3.2557855" /><path
           style="fill:#5c6063;fill-opacity:1;stroke:none;stroke-width:0.264583"
           d="m 89.850639,142.03365 c 10.403371,6.31443 18.528861,5.05797 26.905451,0 -2.2076,4.66605 -10.23195,8.09864 -11.99056,16.35368 l -0.0202,6.56724 -1.99324,0.006 -0.0866,-6.60778 C 101.54637,152.295 92.475689,147.13915 89.850649,142.03412 Z"
           id="path2"
           sodipodi:nodetypes="ccccccc" /></g></g></g></svg>
