<?xml version="1.0" encoding="UTF-8" standalone="no"?>
<!-- Created with Inkscape (http://www.inkscape.org/) -->

<svg
   width="245"
   height="50"
   viewBox="0 0 64.822915 13.229167"
   version="1.1"
   id="svg1"
   inkscape:version="1.3 (0e150ed6c4, 2023-07-21)"
   sodipodi:docname="logo.svg"
   xml:space="preserve"
   xmlns:inkscape="http://www.inkscape.org/namespaces/inkscape"
   xmlns:sodipodi="http://sodipodi.sourceforge.net/DTD/sodipodi-0.dtd"
   xmlns="http://www.w3.org/2000/svg"
   xmlns:svg="http://www.w3.org/2000/svg"><sodipodi:namedview
     id="namedview1"
     pagecolor="#ffffff"
     bordercolor="#000000"
     borderopacity="0.25"
     inkscape:showpageshadow="2"
     inkscape:pageopacity="0.0"
     inkscape:pagecheckerboard="0"
     inkscape:deskcolor="#d1d1d1"
     inkscape:document-units="mm"
     inkscape:zoom="2.0686841"
     inkscape:cx="146.22822"
     inkscape:cy="-8.4594838"
     inkscape:window-width="1920"
     inkscape:window-height="1017"
     inkscape:window-x="-8"
     inkscape:window-y="-8"
     inkscape:window-maximized="1"
     inkscape:current-layer="layer1"
     showguides="true" /><defs
     id="defs1" /><g
     inkscape:label="Camada 1"
     inkscape:groupmode="layer"
     id="layer1"><g
       id="g84"
       transform="matrix(0.38897552,0,0,0.38897552,-8.7043405,-49.273003)"><g
         id="g83"
         transform="matrix(0.77911557,0,0,0.77911557,-4.8367129,31.69508)"><path
           id="rect21"
           style="fill:#5c6063;fill-opacity:1;stroke:none;stroke-width:0.380833"
           d="m 104.79935,157.45598 v 0.82861 h 20.11279 v -0.82861 z m 111.68996,0 v 0.82861 h 20.11279 v -0.82861 z" /><path
           id="path80"
           style="color:#000000;fill:#5c6063;fill-opacity:1;stroke-width:1.43937;-inkscape-stroke:none"
           d="m 93.841445,124.91588 c -0.637016,0.006 -1.154934,0.27731 -1.483914,0.6724 -0.32898,0.39508 -0.478574,0.89909 -0.455958,1.39169 l 0.0059,0.15173 0.01411,0.0115 v 16.12817 h 1.501022 v -8.48397 h 8.729425 v -1.52408 h -8.729425 v -6.34475 c 0.01295,-0.1294 0.04538,-0.25968 0.104139,-0.33771 0.05622,-0.0747 0.137949,-0.1068 0.258848,-0.12349 h 9.932178 v -1.52631 h -9.710522 l -0.01637,-0.0148 z m 77.194745,0 c -0.63703,0.006 -1.15811,0.27726 -1.48689,0.6724 -0.3288,0.39512 -0.47486,0.89919 -0.45224,1.39169 l 0.006,0.15173 0.0115,0.0115 v 16.12817 h 1.504 v -7.97 h 4.20256 l 5.52952,8.03173 h 1.68401 l -5.52358,-8.03173 h 0.33174 v -0.21645 c 0.78684,-0.10061 1.65327,-0.42791 2.40922,-1.2087 0.87159,-0.90022 1.56146,-2.21182 1.57987,-3.81206 0.0183,-1.58994 -0.63674,-2.87647 -1.50102,-3.75552 -0.75648,-0.76941 -1.65784,-1.09968 -2.48286,-1.20945 v -0.17703 h -5.65599 l -0.006,-0.006 z m -48.92154,0.10118 v 0.35703 17.89399 h 1.49879 v -18.25102 z m 48.84269,1.45193 h 7.5e-4 5.55482 c 0.53952,0.0347 1.28585,0.49488 1.864,1.20275 0.58872,0.72083 0.99451,1.64964 0.98407,2.39509 -0.0101,0.75591 -0.42015,1.71478 -1.00416,2.4598 -0.56576,0.72172 -1.28337,1.184 -1.81862,1.23474 h -1.09638 l -0.006,-0.006 h -1.71226 l 0.003,0.006 h -3.10915 v -6.8513 c 0.0144,-0.1258 0.0439,-0.2527 0.10118,-0.32877 0.0514,-0.0682 0.13775,-0.0921 0.23877,-0.11227 z m -42.2138,0.22984 c -0.45972,-2.2e-4 -0.84073,0.38153 -0.84052,0.84125 -2.2e-4,0.45972 0.38079,0.84073 0.84052,0.84051 0.45924,-4.9e-4 0.83776,-0.38128 0.83753,-0.84051 2.2e-4,-0.45923 -0.3783,-0.84076 -0.83753,-0.84125 z m 97.88622,0 c -0.45972,-2.3e-4 -0.84146,0.38153 -0.84126,0.84125 -2.1e-4,0.45972 0.38152,0.84074 0.84126,0.84051 0.45972,2.3e-4 0.83775,-0.38079 0.83754,-0.84051 2e-4,-0.45972 -0.37784,-0.84148 -0.83754,-0.84125 z m 20.86181,0 c -0.45923,4.9e-4 -0.83775,0.38202 -0.83754,0.84125 -2.3e-4,0.45923 0.3783,0.84002 0.83754,0.84051 0.45971,2.2e-4 0.84074,-0.3808 0.84051,-0.84051 2.2e-4,-0.45972 -0.3808,-0.84147 -0.84051,-0.84125 z m -10.27507,3.65213 c -1.38767,-0.02 -2.76362,0.66819 -3.88495,1.91162 v -1.59401 h -1.35821 v 12.67314 h 1.35821 v -8.76215 c 1.01059,-2.34483 2.87411,-3.01442 4.54546,-2.74171 1.66052,0.27096 3.03646,1.50296 3.10394,3.02808 v 8.48471 h 1.37457 v -8.78298 h -0.09 c -0.22863,-2.39029 -2.54509,-4.18048 -5.04903,-4.2167 z m -125.24751,0.10119 -0.0424,0.0425 c -3.44327,0.10982 -6.21287,2.9664 -6.2131,6.50244 -1.9e-4,3.60541 2.86692,6.54462 6.40426,6.54484 1.88883,-5.9e-4 3.67917,-0.85447 4.89431,-2.32814 l 0.48051,-0.58167 H 115.938 l -0.10339,0.10939 c -0.98072,1.02288 -2.31967,1.59637 -3.71685,1.59699 -2.64843,-0.006 -4.79181,-2.0542 -5.10555,-4.71432 h 11.16914 v -0.003 h 0.31836 l 0.0164,-0.33769 c 0.005,-0.0944 0.005,-0.1888 0.006,-0.2834 v -0.003 c -2.3e-4,-3.60544 -2.86691,-6.54505 -6.40426,-6.54484 z m 28.49784,0.003 c -2.07351,0.004 -3.85036,1.17712 -5.03787,2.85922 v -2.53567 h -1.39763 v 19.29609 h 1.39763 v -9.39217 c 1.18751,1.68213 2.96436,2.85444 5.03787,2.85923 3.53764,2.3e-4 6.40668,-2.93911 6.40649,-6.54484 -2.4e-4,-3.60543 -2.86915,-6.54209 -6.40649,-6.54186 z m 15.64989,0 c -3.53704,2.1e-4 -6.40328,2.93675 -6.40351,6.54186 -2e-4,3.60541 2.86617,6.54462 6.40351,6.54484 1.88883,-5.9e-4 3.67992,-0.85447 4.89506,-2.32814 l 0.4805,-0.58167 h -1.55457 l -0.10414,0.1094 c -0.98073,1.02287 -2.31967,1.59636 -3.71685,1.59698 -2.64844,-0.006 -4.79107,-2.0542 -5.10481,-4.71432 h 11.16914 v -0.003 h 0.31761 l 0.0141,-0.33769 c 0.004,-0.0944 0.008,-0.18882 0.008,-0.2834 v -0.003 c -2.3e-4,-3.60542 -2.86617,-6.54209 -6.40351,-6.54186 z m 34.24159,0 c -3.53705,2.1e-4 -6.40403,2.93675 -6.40426,6.54186 -2e-4,3.60541 2.86691,6.54462 6.40426,6.54484 3.53763,2.3e-4 6.40444,-2.93911 6.40425,-6.54484 -2.4e-4,-3.60543 -2.86692,-6.54209 -6.40425,-6.54186 z m 14.16597,0.19934 c -0.13055,4.4e-4 -0.26172,0.003 -0.3905,0.006 -1.06102,0.0236 -2.16984,0.23684 -3.05337,0.70589 -0.88353,0.46904 -1.55978,1.25028 -1.55978,2.29689 0,1.01735 0.53343,1.84503 1.38871,2.45684 0.85526,0.6118 2.03239,1.05069 3.44089,1.42811 1.37967,0.36969 2.32349,0.69174 2.85626,1.05698 0.53276,0.36522 0.69663,0.70532 0.65232,1.39688 -0.0384,0.60059 -0.52194,1.07039 -1.26225,1.41474 -0.74032,0.34436 -1.69198,0.5199 -2.42336,0.52811 -0.76179,0.009 -1.60614,-0.0508 -2.22698,-0.18818 -0.31043,-0.0687 -0.56629,-0.16121 -0.71109,-0.24771 -0.14481,-0.0865 -0.14351,-0.11946 -0.14351,-0.12652 v -0.36223 l -1.34334,0.0223 v 0.35109 c 0,0.42843 0.21651,0.79969 0.5229,1.05473 0.30638,0.25503 0.69686,0.42336 1.12688,0.54819 0.86006,0.24963 1.8925,0.31982 2.75511,0.31761 0.89153,-0.003 2.07272,-0.18653 3.08981,-0.67762 1.01709,-0.49109 1.89413,-1.34257 1.97037,-2.60336 0.075,-1.24101 -0.60999,-2.11769 -1.50623,-2.66806 -0.89623,-0.55039 -2.00938,-0.84517 -2.96635,-1.1016 -0.93923,-0.25166 -1.94791,-0.598 -2.69037,-1.0458 -0.74246,-0.44781 -1.17746,-0.95326 -1.17746,-1.55235 0,-0.61119 0.37465,-0.98053 1.01455,-1.26224 0.63992,-0.28172 1.51062,-0.40291 2.25749,-0.40985 0.76357,-0.007 1.64585,0.0425 2.30509,0.17107 0.32962,0.0643 0.6031,0.15354 0.76166,0.23878 0.15856,0.0852 0.15174,0.11673 0.15174,0.10708 v 0.37637 l 1.35821,-0.0728 v -0.33694 c 0,-0.39397 -0.17824,-0.74744 -0.44703,-0.99524 -0.26877,-0.24781 -0.61696,-0.40998 -1.00936,-0.52884 -0.78482,-0.23773 -1.76493,-0.30174 -2.74097,-0.29828 z m 12.60844,0 c -0.13055,4.4e-4 -0.25871,0.003 -0.38754,0.006 -1.06103,0.0236 -2.17296,0.23682 -3.05633,0.70589 -0.88336,0.46906 -1.55681,1.25032 -1.55681,2.29689 0,1.01735 0.53344,1.84503 1.3887,2.45684 0.85528,0.6118 2.0294,1.05069 3.43792,1.42811 1.37965,0.36969 2.32371,0.69176 2.85626,1.05698 0.53255,0.36519 0.69961,0.70526 0.6553,1.39688 -0.0384,0.60065 -0.52512,1.0704 -1.26524,1.41474 -0.74011,0.34436 -1.69199,0.5199 -2.42335,0.52811 -0.76179,0.009 -1.60316,-0.0508 -2.224,-0.18818 -0.31043,-0.0687 -0.5663,-0.16121 -0.7111,-0.24771 -0.1448,-0.0865 -0.1435,-0.11946 -0.1435,-0.12652 v -0.36223 l -1.34632,0.0223 v 0.35109 c 0,0.42843 0.21949,0.79969 0.52587,1.05473 0.3064,0.25503 0.69686,0.42336 1.12689,0.54819 0.86005,0.24963 1.8925,0.31982 2.7551,0.31761 0.89153,-0.003 2.06975,-0.18653 3.08684,-0.67762 1.01709,-0.49109 1.89709,-1.34257 1.97333,-2.60336 0.075,-1.24101 -0.60999,-2.11769 -1.50621,-2.66806 -0.89623,-0.55039 -2.01235,-0.84517 -2.96933,-1.1016 -0.93923,-0.25166 -1.94495,-0.598 -2.68741,-1.0458 -0.74245,-0.44781 -1.1782,-0.95326 -1.1782,-1.55235 0,-0.61125 0.37561,-0.98055 1.01531,-1.26224 0.63971,-0.2817 1.51062,-0.40291 2.25748,-0.40985 0.76356,-0.007 1.64267,0.0425 2.30212,0.17107 0.32972,0.0643 0.60599,0.15352 0.76464,0.23878 0.15865,0.0852 0.15174,0.11687 0.15174,0.10708 v 0.37637 l 1.35524,-0.0728 v -0.33694 c 0,-0.39393 -0.17535,-0.74743 -0.44406,-0.99524 -0.26871,-0.24782 -0.61705,-0.40998 -1.00936,-0.52884 -0.78465,-0.23774 -1.76793,-0.30174 -2.74394,-0.29828 z m -88.98796,0.0282 v 0.35405 12.34736 h 1.35821 v -12.70141 z m 97.88623,0 v 0.35405 12.34736 h 1.35448 v -12.70141 z m 20.86182,0 v 0.35405 12.34736 h 1.35821 v -12.70152 z m -134.77803,0.97577 h 0.003 c 2.63569,0.007 4.77582,2.03736 5.10258,4.68307 h -10.20514 c 0.32676,-2.64571 2.46392,-4.67518 5.09961,-4.68307 z m 28.35205,0 h 0.003 c 2.87728,0.001 5.21176,2.38125 5.21192,5.33837 2.2e-4,2.95739 -2.33437,5.33968 -5.21192,5.34135 -2.3875,-0.006 -4.46133,-1.66994 -5.04085,-4.04859 v -2.58327 c 0.57956,-2.37744 2.65175,-4.04085 5.03787,-4.04786 z m 15.64766,0 h 0.003 c 2.6355,0.007 4.77261,2.03763 5.0996,4.68307 h -10.20216 c 0.32676,-2.64571 2.46392,-4.67518 5.09961,-4.68307 z m 34.24382,0 c 2.87858,8e-5 5.21175,2.38027 5.21191,5.33837 2.3e-4,2.95837 -2.33305,5.34127 -5.21191,5.34135 -2.87888,-8e-5 -5.21214,-2.38298 -5.21193,-5.34135 1.6e-4,-2.9581 2.33333,-5.33829 5.21193,-5.33837 z" /><path
           id="path81"
           style="color:#000000;fill:#5c6063;fill-opacity:1;stroke-width:1.43937;-inkscape-stroke:none"
           d="m 139.22986,153.67292 0.0164,0.16291 0.0565,0.53703 v 8.00942 h 0.71406 v -6.85426 l 6.31426,7.02013 -0.006,-0.0484 0.003,0.006 v -8.57174 h -0.71109 l 0.0223,6.65492 z m 23.44286,0.27523 c -0.27154,-9e-5 -0.49175,0.22087 -0.49166,0.4924 -9e-5,0.27154 0.22011,0.49472 0.49166,0.49463 0.27154,9e-5 0.49472,-0.22309 0.49464,-0.49463 8e-5,-0.27153 -0.2231,-0.49249 -0.49464,-0.4924 z m 8.19536,0 c -0.27154,-9e-5 -0.49545,0.22085 -0.49537,0.4924 -9e-5,0.27154 0.22383,0.49472 0.49537,0.49463 0.27155,9e-5 0.49175,-0.22309 0.49166,-0.49463 7e-5,-0.27155 -0.22012,-0.49249 -0.49166,-0.4924 z m 16.29106,0 c -0.27153,-9e-5 -0.49173,0.22087 -0.49166,0.4924 -8e-5,0.27154 0.22013,0.4947 0.49166,0.49463 0.27155,9e-5 0.49175,-0.22309 0.49166,-0.49463 8e-5,-0.27155 -0.22012,-0.49249 -0.49166,-0.4924 z m -31.97814,0.91116 v 0.0528 1.98227 h -1.12168 v 0.65232 h 1.12168 v 4.83779 h 0.71927 v -4.83779 h 1.11052 v -0.65232 h -1.11052 v -2.03508 z m 39.48995,0 v 0.0528 1.98227 h -1.12465 v 0.65232 h 1.12465 v 4.83779 h 0.71704 v -4.83779 h 1.11275 v -0.65232 h -1.11275 v -2.03508 z m -36.65378,1.94508 v 0.0566 5.52952 h 0.73415 v -3.58444 c 0.0328,-0.36757 0.19429,-0.67632 0.5534,-0.88291 0.3591,-0.20661 0.92148,-0.30758 1.74871,-0.2358 l 0.0595,0.003 v -0.72523 l -0.0454,-0.006 c -1.10199,-0.18342 -1.82642,0.1718 -2.31625,0.81225 v -0.96697 z m 4.48744,0 v 0.0566 5.52952 h 0.73341 v -5.58606 z m 8.05405,0 v 0.0566 5.52952 h 0.7334 v -5.58606 z m 9.61977,0 v 5.58606 h 0.73117 v -3.66552 c 0.5425,-0.96297 1.3361,-1.17321 2.01276,-1.05994 0.33935,0.0569 0.64607,0.19655 0.87176,0.36522 0.22569,0.16865 0.36464,0.36837 0.37935,0.52587 0.0101,1.25919 0.004,2.53066 0.006,3.79495 v 0.0566 h 0.54224 v -3.81801 l 0.003,-0.006 v -0.0164 c 0.0389,-1.25906 -2.04727,-2.47503 -3.81502,-0.96472 v -0.79812 h -0.0528 z m 6.67129,0 v 0.0566 5.52952 h 0.73117 v -5.58606 z m 14.95592,0 v 0.0566 1.14398 c -0.47412,-0.65125 -1.17249,-1.08592 -1.94807,-1.0882 -1.3935,-1.3e-4 -2.51845,1.21504 -2.51855,2.7075 1.1e-4,1.49246 1.12505,2.70762 2.51855,2.70749 0.77544,-0.001 1.47382,-0.43429 1.94807,-1.08523 v 1.14398 h 0.73415 v -5.58606 z m -34.08911,0.0312 c -1.54865,3e-5 -2.80564,1.257 -2.80567,2.80567 4e-5,1.54864 1.25702,2.80565 2.80567,2.80568 0.37872,-0.001 0.75382,-0.0806 1.1016,-0.23059 l 0.0343,-0.0148 v -0.67984 l -0.0848,0.0446 c -0.32254,0.17766 -0.68279,0.27164 -1.05102,0.27298 -1.21472,-1e-4 -2.19862,-0.98401 -2.19872,-2.19872 1e-4,-1.21473 0.98399,-2.19787 2.19872,-2.19797 0.36823,0.001 0.72848,0.0946 1.05102,0.27222 l 0.0848,0.0453 v -0.67984 l -0.0343,-0.0171 c -0.34778,-0.14992 -0.72288,-0.22633 -1.1016,-0.22761 z m 8.09942,0 c -1.54865,3e-5 -2.80343,1.257 -2.80345,2.80567 3e-5,1.54864 1.2548,2.80563 2.80345,2.80568 1.54865,-3e-5 2.80564,-1.25704 2.80567,-2.80568 -3e-5,-1.54867 -1.257,-2.80564 -2.80567,-2.80567 z m 15.42527,0.009 c -0.51504,0 -0.94859,0.14525 -1.28755,0.43068 -0.33922,0.28325 -0.51175,0.65378 -0.51175,1.09861 0,0.38519 0.10262,0.7045 0.30943,0.95059 0.20921,0.24401 0.52773,0.4161 0.94688,0.51472 0.20456,0.0464 0.39748,0.0822 0.57943,0.11227 0.18087,0.0297 0.34731,0.0669 0.50059,0.11228 0.19941,0.058 0.3426,0.1376 0.4329,0.23578 l 0.003,0.003 c 0.0884,0.094 0.13458,0.24727 0.13458,0.46712 0,0.25005 -0.0961,0.43965 -0.29826,0.58984 -0.19914,0.14935 -0.48231,0.22761 -0.85689,0.22761 -0.26207,0 -0.54398,-0.0584 -0.84645,-0.17405 -0.30129,-0.11515 -0.56631,-0.27769 -0.79589,-0.48943 l -0.0164,-0.0144 h -0.12119 v 0.94763 l 0.0312,0.0144 c 0.2793,0.13732 0.55337,0.24226 0.82341,0.31242 0.27345,0.0705 0.58106,0.10406 0.91935,0.10406 0.31657,0 0.58984,-0.0412 0.8182,-0.12724 0.22823,-0.0851 0.42732,-0.20495 0.59878,-0.35703 0.15773,-0.14135 0.27915,-0.31417 0.36521,-0.51695 0.0878,-0.20187 0.13228,-0.40786 0.13242,-0.61588 -1.3e-4,-0.37697 -0.0879,-0.67894 -0.27297,-0.8963 -0.18331,-0.21533 -0.45412,-0.37183 -0.8063,-0.47531 -0.17273,-0.0491 -0.38373,-0.0973 -0.63001,-0.1435 -0.2435,-0.0458 -0.43115,-0.0866 -0.56233,-0.11832 h -0.003 c -0.2431,-0.0628 -0.40667,-0.15335 -0.49464,-0.26107 -0.0897,-0.10983 -0.13761,-0.26371 -0.13761,-0.46935 0,-0.22423 0.09,-0.39949 0.27819,-0.54299 0.18964,-0.14221 0.44084,-0.21646 0.76166,-0.21646 0.29448,0 0.58293,0.0554 0.86358,0.16365 0.28354,0.10622 0.50981,0.23899 0.67984,0.39869 l 0.0171,0.0148 h 0.12048 v -0.89704 l -0.0305,-0.0171 c -0.21383,-0.1032 -0.45897,-0.18824 -0.73413,-0.25811 -0.27726,-0.0704 -0.58027,-0.10709 -0.91044,-0.10709 z m -42.84978,0.29009 v 0.0566 3.278 c 0,1.04929 0.84819,1.8945 1.89748,1.8945 h 0.66348 c 1.0493,0 1.89525,-0.84521 1.89525,-1.8945 v -3.33452 h -0.6382 l 0.003,0.0587 c 0.039,0.97912 0.0164,2.04118 0.0164,3.0251 0,0.85453 -0.68889,1.54045 -1.54342,1.54045 h -0.13165 c -0.8536,0 -1.53894,-0.68425 -1.54045,-1.53747 v -0.003 c 0.0206,-0.98527 -0.0356,-2.06526 0.0141,-3.02511 l 0.002,-0.0587 z m 27.42451,0.30943 c 1.21473,1e-4 2.19788,0.98323 2.19798,2.19798 -1.1e-4,1.21473 -0.98325,2.19862 -2.19798,2.19872 -1.21471,-1e-4 -2.19862,-0.98401 -2.19872,-2.19872 1e-4,-1.21473 0.98399,-2.19787 2.19872,-2.19798 z m 24.04162,0.15993 c 1.0336,-1.9e-4 1.87499,0.90277 1.87518,2.02168 1.7e-4,1.11918 -0.84132,2.02115 -1.87518,2.02095 -1.03387,2e-4 -1.87533,-0.90177 -1.87515,-2.02095 2e-4,-1.11891 0.84154,-2.02187 1.87515,-2.02168 z" /></g><g
         id="g82"
         transform="matrix(0.2621219,0,0,0.2621219,13.515504,112.1041)"><path
           style="fill:#108b52;fill-opacity:1;stroke:none;stroke-width:0.380833"
           d="m 119.99518,76.852198 c -8.0226,7.296699 -31.429561,27.367662 -11.78207,39.120152 -0.40343,-8.40374 0.62398,-16.628613 6.07513,-24.300521 -1.96836,8.406991 -2.93349,15.617371 -2.57733,25.220981 18.46655,-3.44581 11.40927,-22.982733 8.28427,-40.040612 z"
           id="path3"
           sodipodi:nodetypes="ccccc" /><path
           style="fill:#91c15d;fill-opacity:1;stroke:none;stroke-width:0.331702"
           d="m 68.721653,85.767073 c 9.088951,2.570706 35.133827,9.121533 24.38469,25.916967 -2.950831,-6.70762 -5.290682,-10.2346 -12.52092,-14.096956 4.800954,5.788606 6.698066,8.548966 10.151961,16.173566 C 75.00345,118.24984 72.913571,100.27826 68.721653,85.767073 Z"
           id="path4"
           sodipodi:nodetypes="ccccc" /><path
           style="fill:#108b52;fill-opacity:1;stroke:none;stroke-width:0.208068"
           d="m 92.469165,72.769795 c 4.168335,4.210649 16.364845,15.831162 5.308863,21.681098 0.460582,-4.573525 0.272398,-7.221815 -2.482208,-11.563601 0.83337,4.643179 1.016599,6.736175 0.547466,11.965718 -9.976743,-2.408458 -5.567237,-12.865866 -3.374121,-22.083215 z"
           id="path5"
           sodipodi:nodetypes="ccccc" /><path
           style="fill:#108b52;fill-opacity:1;stroke:none;stroke-width:0.23316"
           d="m 66.348277,60.541075 c 5.771123,2.572671 23.742814,9.600479 15.278476,21.262398 -1.388361,-5.189002 -2.83258,-7.780047 -7.27332,-11.173841 1.185288,4.643491 2.141036,7.479873 4.630941,11.823464 C 66.563008,84.496235 66.997638,71.606058 66.348277,60.541075 Z"
           id="path6"
           sodipodi:nodetypes="ccccc" /><path
           style="fill:#108b52;fill-opacity:1;stroke:none;stroke-width:0.126532"
           d="m 92.563658,55.583637 c -1.881838,3.072621 -7.485443,11.64879 -0.126449,13.573774 -0.908958,-2.643441 -1.165998,-4.237406 -0.139331,-7.190973 0.152633,2.864697 0.335349,4.12924 1.340639,7.159852 5.57114,-2.813823 1.505822,-8.391117 -1.074866,-13.542653 z"
           id="path7"
           sodipodi:nodetypes="ccccc" /><path
           style="fill:#91c15d;fill-opacity:1;stroke:none;stroke-width:0.193334"
           d="m 112.79185,55.608934 c -3.83759,3.947362 -15.072252,14.847077 -4.75055,20.189552 -0.46638,-4.245603 -0.31381,-6.707842 2.20912,-10.765164 -0.7353,4.321203 -0.88792,6.267454 -0.40807,11.122524 9.24962,-2.321693 5.06462,-12.001099 2.9494,-20.546937 z"
           id="path8"
           sodipodi:nodetypes="ccccc" /><path
           style="fill:#108b52;fill-opacity:1;stroke:none;stroke-width:0.231314"
           d="m 138.40108,62.215572 c -5.85604,3.015586 -22.74981,11.099418 -13.07749,21.090034 1.08799,-4.993056 2.1988,-7.727659 6.60563,-11.368662 -2.47977,4.621131 -3.39413,6.770474 -4.69894,12.459928 11.37529,0.889481 10.31508,-11.682945 11.1707,-22.181367 z"
           id="path9"
           sodipodi:nodetypes="ccccc" /><path
           style="fill:#108b52;fill-opacity:1;stroke:none;stroke-width:0.220631"
           d="m 144.94628,81.081383 c -5.58557,2.876305 -21.69907,10.586771 -12.47349,20.115967 1.03775,-4.762469 2.09726,-7.370756 6.30054,-10.843595 -2.36523,4.407697 -3.23736,6.457766 -4.4819,11.884445 10.8499,0.84839 9.83865,-11.143348 10.65475,-21.156882 z"
           id="path10"
           sodipodi:nodetypes="ccccc" /><path
           style="fill:#91c15d;fill-opacity:1;stroke:none;stroke-width:0.133794"
           d="m 161.99249,85.098019 c -3.80182,-0.247718 -14.58624,-1.267669 -12.7635,6.566168 2.0259,-2.152313 3.3908,-3.177797 6.6601,-3.671641 -2.60539,1.553556 -3.69865,2.347281 -6.03937,4.780399 5.37651,3.827291 8.59327,-2.723267 12.14275,-7.67499 z"
           id="path11"
           sodipodi:nodetypes="ccccc" /><path
           style="fill:#91c15d;fill-opacity:1;stroke:none;stroke-width:0.251035"
           d="m 162.73771,99.858817 c -7.13327,-0.464788 -27.36778,-2.378491 -23.94783,12.319943 3.80114,-4.03833 6.36207,-5.96242 12.49619,-6.889 -4.88844,2.91491 -6.93971,4.40413 -11.33153,8.96934 10.08782,7.18106 16.12333,-5.10961 22.78313,-14.400384 z"
           id="path12"
           sodipodi:nodetypes="ccccc" /><path
           style="fill:#108b52;fill-opacity:1;stroke:none;stroke-width:0.128424"
           d="m 134.79207,118.68795 c -3.44076,-1.23871 -13.11666,-5.0451 -13.5171,2.66473 2.44048,-1.44685 3.97189,-2.03002 7.11854,-1.61678 -2.8159,0.74062 -4.03516,1.18217 -6.84063,2.80437 3.942,4.95874 8.64956,-0.22838 13.23917,-3.85236 z"
           id="path13"
           sodipodi:nodetypes="ccccc" /><path
           style="fill:#108b52;fill-opacity:1;stroke:none;stroke-width:0.178505"
           d="m 175.27976,113.01848 c -4.71619,-1.89603 -17.96226,-7.67655 -18.91156,3.01225 3.46368,-1.88529 5.62058,-2.61727 9.97032,-1.88283 -3.94915,0.88517 -5.66524,1.43635 -9.64485,3.54661 5.22277,7.08882 12.02618,0.12379 18.58606,-4.67609 z"
           id="path14"
           sodipodi:nodetypes="ccccc" /><path
           style="fill:#108b52;fill-opacity:1;stroke:none;stroke-width:0.283692"
           d="m 167.44111,128.35586 c -6.88881,-4.21932 -26.11646,-16.78337 -30.43287,-0.28455 5.92678,-2.03771 9.50049,-2.61396 16.12244,-0.31187 -6.42284,0.34198 -9.25793,0.75155 -16.05271,3.00528 6.30835,12.49084 18.81304,3.37669 30.36311,-2.40895 z"
           id="path15"
           sodipodi:nodetypes="ccccc" /><g
           id="g78"
           style="fill:#a8abb0;fill-opacity:1;stroke:none"
           transform="matrix(1.4393724,0,0,1.4393724,-40.903656,-52.106192)"><circle
             style="fill:#a8abb0;fill-opacity:1;stroke:none;stroke-width:0.264583"
             id="circle15"
             cx="103.68774"
             cy="124.35703"
             r="3.2557855" /><path
             style="fill:#a8abb0;fill-opacity:1;stroke:none;stroke-width:0.264583"
             d="m 89.850639,124.44749 c 10.403371,6.31443 18.528861,5.05797 26.905451,0 -2.2076,4.66605 -10.23195,8.09864 -11.99056,16.35368 l -0.0202,6.56724 -1.99324,0.006 -0.0866,-6.60778 c -1.11912,-6.05779 -10.189801,-11.21364 -12.814841,-16.31867 z"
             id="path16"
             sodipodi:nodetypes="ccccccc" /></g><path
           style="fill:#108b52;fill-opacity:1;stroke:none;stroke-width:0.251644"
           d="m 45.404743,102.65473 c 6.957178,-1.7165 26.587201,-7.173016 25.804182,7.93462 -4.463053,-3.31476 -7.329492,-4.76187 -13.546024,-4.59458 5.337896,2.01448 7.624704,3.12232 12.763594,6.85284 -8.688397,8.86513 -16.811536,-2.19906 -25.021752,-10.19288 z"
           id="path17"
           sodipodi:nodetypes="ccccc" /><path
           style="fill:#91c15d;fill-opacity:1;stroke:none;stroke-width:0.126455"
           d="m 53.490693,87.975047 c 3.598937,0.119482 13.837236,0.159958 11.396454,7.359477 -1.705988,-2.212273 -2.894741,-3.303389 -5.92403,-4.070995 2.306563,1.702838 3.261302,2.550758 5.237391,5.056346 -5.411936,3.101459 -7.830276,-3.358186 -10.709815,-8.344828 z"
           id="path18"
           sodipodi:nodetypes="ccccc" /><path
           style="fill:#91c15d;fill-opacity:1;stroke:none;stroke-width:0.15347"
           d="m 35.279023,115.23445 c 3.85563,-2.05734 14.642587,-8.22475 16.443693,0.82375 -3.135159,-1.29075 -5.046572,-1.71669 -8.696513,-0.68625 3.457479,0.39098 4.975391,0.70322 8.572388,2.13848 -3.807804,6.54281 -10.268,1.21934 -16.319563,-2.27602 z"
           id="path19"
           sodipodi:nodetypes="ccccc" /><path
           style="fill:#108b52;fill-opacity:1;stroke:none;stroke-width:0.289187"
           d="m 47.234953,128.01036 c 7.05524,-4.24694 26.75373,-16.90314 31.024112,-0.0509 -6.025452,-2.12369 -9.663842,-2.73913 -16.432002,-0.44461 6.544385,0.39908 9.431209,0.83885 16.339826,3.18951 -6.528499,12.6831 -19.2037,3.29435 -30.931931,-2.69402 z"
           id="path20"
           sodipodi:nodetypes="ccccc" /><path
           style="fill:#108b52;fill-opacity:1;stroke:none;stroke-width:0.120539"
           d="m 78.450747,119.30038 c 3.174994,-1.30432 12.090102,-5.27503 12.785493,1.93787 -2.348457,-1.25545 -3.808657,-1.73872 -6.742089,-1.22071 2.67116,0.57762 3.832794,0.94111 6.530799,2.34582 -3.490629,4.81336 -8.12014,0.14476 -12.574196,-3.06303 z"
           id="path21"
           sodipodi:nodetypes="ccccc" /><g
           id="g79"
           style="fill:#5c6063;fill-opacity:1;stroke:none"
           transform="matrix(1.4393724,0,0,1.4393724,-40.903656,-52.106192)"><circle
             style="fill:#5c6063;fill-opacity:1;stroke:none;stroke-width:0.264583"
             id="path1"
             cx="103.68774"
             cy="141.94319"
             r="3.2557855" /><path
             style="fill:#5c6063;fill-opacity:1;stroke:none;stroke-width:0.264583"
             d="m 89.850639,142.03365 c 10.403371,6.31443 18.528861,5.05797 26.905451,0 -2.2076,4.66605 -10.23195,8.09864 -11.99056,16.35368 l -0.0202,6.56724 -1.99324,0.006 -0.0866,-6.60778 C 101.54637,152.295 92.475689,147.13915 89.850649,142.03412 Z"
             id="path2"
             sodipodi:nodetypes="ccccccc" /></g></g></g></g></svg>
